<?xml version="1.0" standalone="no"?>
<!DOCTYPE svg PUBLIC "-//W3C//DTD SVG 20010904//EN"
 "http://www.w3.org/TR/2001/REC-SVG-20010904/DTD/svg10.dtd">
<svg version="1.0" xmlns="http://www.w3.org/2000/svg"
 width="96.000000pt" height="96.000000pt" viewBox="0 0 96.000000 96.000000"
 preserveAspectRatio="xMidYMid meet">

<g transform="translate(0.000000,96.000000) scale(0.100000,-0.100000)"
fill="#000000" stroke="none">
<path d="M423 824 c-33 -16 -63 -66 -63 -104 0 -34 28 -86 55 -100 24 -13 25
-18 25 -97 l0 -83 -41 0 c-26 0 -50 7 -66 20 -33 25 -73 25 -106 0 -14 -11
-33 -20 -42 -20 -9 0 -27 -11 -40 -25 -24 -23 -25 -31 -25 -135 0 -104 1 -112
25 -135 l24 -25 311 0 311 0 24 25 c24 23 25 31 25 135 0 104 -1 112 -25 135
-23 24 -29 25 -160 25 l-135 0 0 83 c0 79 1 84 25 97 27 14 55 66 55 100 0 39
-30 88 -65 104 -41 20 -71 20 -112 0z m87 -79 c26 -32 -13 -81 -47 -59 -35 22
-23 74 17 74 10 0 23 -7 30 -15z m250 -465 l0 -80 -280 0 -280 0 0 80 0 80
280 0 280 0 0 -80z"/>
</g>
</svg>
