<?xml version="1.0" encoding="UTF-8"?>
<!DOCTYPE svg PUBLIC "-//W3C//DTD SVG 1.1//EN" "http://www.w3.org/Graphics/SVG/1.1/DTD/svg11.dtd">
<svg xmlns="http://www.w3.org/2000/svg" version="1.1" width="512px" height="512px" style="shape-rendering:geometricPrecision; text-rendering:geometricPrecision; image-rendering:optimizeQuality; fill-rule:evenodd; clip-rule:evenodd" xmlns:xlink="http://www.w3.org/1999/xlink">
<g><path style="opacity:0.95" fill="#000000" d="M 225.5,-0.5 C 245.5,-0.5 265.5,-0.5 285.5,-0.5C 330.566,2.35076 373.566,13.5174 414.5,33C 436.511,44.0102 453.677,60.1769 466,81.5C 468.269,86.6396 469.935,91.9729 471,97.5C 471.667,202.5 471.667,307.5 471,412.5C 469.14,423.086 465.14,432.752 459,441.5C 440.446,463.372 417.613,479.205 390.5,489C 356.112,501.576 320.779,509.076 284.5,511.5C 265.167,511.5 245.833,511.5 226.5,511.5C 181.076,508.81 137.742,497.643 96.5,478C 74.4894,466.99 57.3228,450.823 45,429.5C 42.5582,424.067 40.8915,418.4 40,412.5C 39.3333,307.833 39.3333,203.167 40,98.5C 41.8596,87.9145 45.8596,78.2478 52,69.5C 70.554,47.628 93.3874,31.7947 120.5,22C 154.571,9.56106 189.571,2.06106 225.5,-0.5 Z M 252.5,19.5 C 294.577,19.2906 335.577,25.7906 375.5,39C 394.835,45.8299 412.501,55.4965 428.5,68C 439.303,76.4618 446.469,87.2951 450,100.5C 451.751,114.994 447.751,127.66 438,138.5C 425.437,151.391 410.937,161.558 394.5,169C 362.527,182.66 329.193,190.993 294.5,194C 244.999,198.782 196.332,194.449 148.5,181C 123.766,174.134 101.433,162.801 81.5,147C 53.2298,120.359 53.5631,94.0253 82.5,68C 104.058,51.5554 128.058,39.8888 154.5,33C 186.774,24.5509 219.441,20.0509 252.5,19.5 Z M 60.5,156.5 C 83.8732,177.528 110.873,192.362 141.5,201C 207.929,218.977 274.929,221.31 342.5,208C 377.15,201.459 408.817,188.126 437.5,168C 441.967,164.535 446.133,160.702 450,156.5C 450.667,175.5 450.667,194.5 450,213.5C 448.004,221.158 444.67,228.158 440,234.5C 427.806,247.699 413.639,258.199 397.5,266C 352.217,285.423 304.884,294.923 255.5,294.5C 213.326,294.582 172.326,287.749 132.5,274C 108.788,265.734 88.2876,252.567 71,234.5C 67.221,229.277 64.221,223.61 62,217.5C 60.5475,197.221 60.0475,176.887 60.5,156.5 Z M 60.5,255.5 C 84.6048,276.559 112.271,291.392 143.5,300C 218.168,320.667 292.834,320.667 367.5,300C 398.623,291.528 426.123,276.694 450,255.5C 450.667,274.5 450.667,293.5 450,312.5C 446.696,324.136 440.529,333.969 431.5,342C 407.82,360.839 381.153,373.839 351.5,381C 284.989,396.89 218.655,396.223 152.5,379C 132.814,373.329 114.148,365.329 96.5,355C 83.3333,347.167 72.8333,336.667 65,323.5C 63.4698,319.91 62.1365,316.243 61,312.5C 60.5001,293.503 60.3334,274.503 60.5,255.5 Z M 60.5,353.5 C 84.9869,375.416 113.32,390.583 145.5,399C 218.84,418.333 292.173,418.333 365.5,399C 390.286,391.971 413.286,381.304 434.5,367C 439.947,362.854 445.114,358.354 450,353.5C 450.667,372.5 450.667,391.5 450,410.5C 447.92,418.66 444.253,425.993 439,432.5C 425.311,447.178 409.145,458.344 390.5,466C 347.165,483.112 302.165,491.612 255.5,491.5C 208.835,491.612 163.835,483.112 120.5,466C 101.855,458.344 85.6885,447.178 72,432.5C 66.7466,425.993 63.0799,418.66 61,410.5C 60.5001,391.503 60.3334,372.503 60.5,353.5 Z"/></g>
<g><path style="opacity:0.886" fill="#000000" d="M 87.5,199.5 C 99.0167,200.87 102.517,206.87 98,217.5C 94.3186,220.36 90.1519,221.193 85.5,220C 79.9752,217.081 78.1419,212.581 80,206.5C 81.7668,203.228 84.2668,200.895 87.5,199.5 Z"/></g>
<g><path style="opacity:0.893" fill="#000000" d="M 129.5,219.5 C 139.299,221.367 142.465,227.034 139,236.5C 133,241.833 127,241.833 121,236.5C 117.688,227.546 120.522,221.88 129.5,219.5 Z"/></g>
<g><path style="opacity:0.882" fill="#000000" d="M 85.5,300.5 C 97.7522,299.349 102.252,304.682 99,316.5C 91.8226,323.529 85.4893,322.863 80,314.5C 78.268,308.314 80.1014,303.647 85.5,300.5 Z"/></g>
<g><path style="opacity:0.89" fill="#000000" d="M 126.5,320.5 C 136.99,319.489 141.49,324.155 140,334.5C 133.333,343.833 126.667,343.833 120,334.5C 118.709,328.087 120.876,323.42 126.5,320.5 Z"/></g>
<g><path style="opacity:0.886" fill="#000000" d="M 86.5,400.5 C 97.6761,400.499 101.843,405.832 99,416.5C 94.7823,421.63 89.6157,422.796 83.5,420C 78.7684,414.965 78.2684,409.465 82,403.5C 83.6516,402.601 85.1516,401.601 86.5,400.5 Z"/></g>
<g><path style="opacity:0.89" fill="#000000" d="M 127.5,420.5 C 139.517,421.534 143.017,427.534 138,438.5C 130.375,443.56 124.375,442.226 120,434.5C 118.595,427.639 121.095,422.973 127.5,420.5 Z"/></g>
</svg>
