<?xml version="1.0" standalone="no"?>
<!DOCTYPE svg PUBLIC "-//W3C//DTD SVG 20010904//EN"
 "http://www.w3.org/TR/2001/REC-SVG-20010904/DTD/svg10.dtd">
<svg version="1.0" xmlns="http://www.w3.org/2000/svg"
 width="100.000000pt" height="100.000000pt" viewBox="0 0 100.000000 100.000000"
 preserveAspectRatio="xMidYMid meet">

<g transform="translate(0.000000,100.000000) scale(0.100000,-0.100000)"
fill="#000000" stroke="none">
<path d="M336 944 c-22 -21 -20 -51 4 -66 19 -12 20 -24 20 -374 0 -359 0
-361 23 -395 62 -93 189 -87 239 12 16 30 18 71 18 389 0 344 1 356 20 368 24
15 26 45 4 66 -23 23 -305 23 -328 0z m304 -34 c0 -6 -37 -10 -90 -10 -83 0
-90 -1 -90 -20 0 -18 7 -20 70 -20 l70 0 0 -60 0 -60 -100 0 -100 0 0 60 c0
33 4 60 10 60 6 0 10 9 10 20 0 16 -7 20 -30 20 -16 0 -30 5 -30 10 0 6 53 10
140 10 87 0 140 -4 140 -10z m-40 -480 c0 -215 -3 -277 -14 -299 -35 -66 -137
-66 -172 0 -11 22 -14 84 -14 299 l0 270 100 0 100 0 0 -270z"/>
<path d="M490 565 c-15 -18 -10 -45 13 -59 34 -22 73 27 47 59 -16 19 -44 19
-60 0z"/>
<path d="M444 366 c-10 -26 4 -48 28 -44 33 4 33 52 0 56 -13 2 -25 -3 -28
-12z"/>
</g>
</svg>
