<?xml version="1.0" encoding="UTF-8"?>
<!DOCTYPE svg PUBLIC "-//W3C//DTD SVG 1.1//EN" "http://www.w3.org/Graphics/SVG/1.1/DTD/svg11.dtd">
<svg xmlns="http://www.w3.org/2000/svg" version="1.1" width="512px" height="512px" style="shape-rendering:geometricPrecision; text-rendering:geometricPrecision; image-rendering:optimizeQuality; fill-rule:evenodd; clip-rule:evenodd" xmlns:xlink="http://www.w3.org/1999/xlink">
<g><path style="opacity:0.991" fill="#e53935" d="M 161.5,31.5 C 224.168,31.3333 286.834,31.5 349.5,32C 392.667,75.1667 435.833,118.333 479,161.5C 479.667,224.167 479.667,286.833 479,349.5C 435.833,392.667 392.667,435.833 349.5,479C 286.833,479.667 224.167,479.667 161.5,479C 118.333,435.833 75.1667,392.667 32,349.5C 31.3333,286.833 31.3333,224.167 32,161.5C 75.3681,118.299 118.535,74.9654 161.5,31.5 Z"/></g>
<g><path style="opacity:1" fill="#f9f7f7" d="M 169.5,47.5 C 226.501,47.3333 283.501,47.5 340.5,48C 341.833,48.6667 343.167,49.3333 344.5,50C 384.361,89.5276 423.861,129.361 463,169.5C 463.667,226.5 463.667,283.5 463,340.5C 462.333,341.833 461.667,343.167 461,344.5C 422.167,383.333 383.333,422.167 344.5,461C 343.167,461.667 341.833,462.333 340.5,463C 283.5,463.667 226.5,463.667 169.5,463C 129.361,423.861 89.5276,384.361 50,344.5C 49.3333,343.167 48.6667,341.833 48,340.5C 47.3333,283.5 47.3333,226.5 48,169.5C 88.0341,128.299 128.534,87.6327 169.5,47.5 Z"/></g>
<g><path style="opacity:1" fill="#e53935" d="M 175.5,63.5 C 228.834,63.3333 282.168,63.5 335.5,64C 372.667,101.167 409.833,138.333 447,175.5C 447.667,228.833 447.667,282.167 447,335.5C 409.833,372.667 372.667,409.833 335.5,447C 282.167,447.667 228.833,447.667 175.5,447C 138.333,409.833 101.167,372.667 64,335.5C 63.3333,282.167 63.3333,228.833 64,175.5C 101.368,138.299 138.535,100.965 175.5,63.5 Z"/></g>
<g><path style="opacity:1" fill="#f9f6f6" d="M 112.5,199.5 C 131.921,197.947 144.754,206.28 151,224.5C 151.767,228.594 151.434,232.594 150,236.5C 145.667,240.5 141.333,240.5 137,236.5C 136.398,221.892 128.898,215.058 114.5,216C 101.425,224.007 100.091,233.673 110.5,245C 115.577,247.095 120.91,248.095 126.5,248C 144.903,254.303 153.069,267.136 151,286.5C 144.734,304.887 131.901,313.054 112.5,311C 95.7545,305.588 87.5879,294.088 88,276.5C 91.8919,270.741 96.5586,270.074 102,274.5C 102.521,281.796 105.355,287.963 110.5,293C 116.973,296.403 123.307,296.069 129.5,292C 138.35,281.804 137.35,272.804 126.5,265C 99.8542,264.359 87.0209,250.859 88,224.5C 91.6829,211.651 99.8496,203.318 112.5,199.5 Z"/></g>
<g><path style="opacity:1" fill="#f9f9f9" d="M 172.5,199.5 C 196.565,199.03 220.565,199.53 244.5,201C 248.5,205.333 248.5,209.667 244.5,214C 234.914,215.42 225.247,215.92 215.5,215.5C 215.667,245.502 215.5,275.502 215,305.5C 212.567,311.448 208.4,312.948 202.5,310C 201.107,308.829 200.273,307.329 200,305.5C 199.5,275.502 199.333,245.502 199.5,215.5C 189.727,215.948 180.061,215.448 170.5,214C 166.128,208.408 166.794,203.575 172.5,199.5 Z"/></g>
<g><path style="opacity:1" fill="#f9f8f8" d="M 356.5,199.5 C 370.504,199.333 384.504,199.5 398.5,200C 416.903,206.303 425.069,219.136 423,238.5C 419.5,251.333 411.333,259.5 398.5,263C 388.172,263.5 377.839,263.666 367.5,263.5C 367.951,278.572 367.451,293.572 366,308.5C 361.667,312.5 357.333,312.5 353,308.5C 352.667,307.5 352.333,306.5 352,305.5C 351.333,271.833 351.333,238.167 352,204.5C 353.025,202.313 354.525,200.646 356.5,199.5 Z"/></g>
<g><path style="opacity:1" fill="#f9f8f8" d="M 288.5,199.5 C 307.919,197.946 320.752,206.279 327,224.5C 327.667,245.167 327.667,265.833 327,286.5C 320.734,304.887 307.901,313.054 288.5,311C 275.693,307.526 267.526,299.36 264,286.5C 263.333,265.833 263.333,245.167 264,224.5C 267.683,211.651 275.85,203.318 288.5,199.5 Z"/></g>
<g><path style="opacity:1" fill="#e53a36" d="M 367.5,215.5 C 377.912,215.074 388.246,215.574 398.5,217C 407.079,222.001 409.579,229.167 406,238.5C 404.167,241.667 401.667,244.167 398.5,246C 388.246,247.426 377.912,247.926 367.5,247.5C 367.5,236.833 367.5,226.167 367.5,215.5 Z"/></g>
<g><path style="opacity:1" fill="#e53a36" d="M 290.5,215.5 C 300.053,214.241 306.886,217.908 311,226.5C 311.667,245.5 311.667,264.5 311,283.5C 306.065,294.782 297.898,297.949 286.5,293C 283.131,290.635 280.964,287.468 280,283.5C 279.333,264.5 279.333,245.5 280,226.5C 282.357,221.645 285.857,217.979 290.5,215.5 Z"/></g>
</svg>
