<?xml version="1.0" standalone="no"?>
<!DOCTYPE svg PUBLIC "-//W3C//DTD SVG 20010904//EN"
 "http://www.w3.org/TR/2001/REC-SVG-20010904/DTD/svg10.dtd">
<svg version="1.0" xmlns="http://www.w3.org/2000/svg"
 width="64.000000pt" height="64.000000pt" viewBox="0 0 64.000000 64.000000"
 preserveAspectRatio="xMidYMid meet">

<g transform="translate(0.000000,64.000000) scale(0.100000,-0.100000)"
fill="#000000" stroke="none">
<path d="M175 542 c-23 -11 -53 -34 -69 -52 -43 -52 -106 -185 -106 -225 0
-72 52 -32 111 88 60 119 111 167 179 167 42 0 82 -41 78 -78 -2 -21 -8 -27
-28 -27 -18 0 -26 6 -28 23 -3 17 -10 22 -33 22 -28 0 -29 -2 -29 -45 0 -56
19 -102 56 -137 44 -41 75 -48 210 -48 116 0 124 1 124 19 0 18 -10 20 -134
23 -150 3 -178 14 -203 75 l-12 31 38 -5 c83 -11 110 83 42 151 -26 26 -39 30
-93 33 -46 3 -74 -1 -103 -15z"/>
<path d="M170 358 c0 -38 36 -117 57 -125 28 -11 31 19 7 55 -14 19 -24 49
-24 68 0 27 -4 34 -20 34 -16 0 -20 -7 -20 -32z"/>
<path d="M0 176 c0 -7 9 -25 20 -39 27 -35 84 -46 122 -24 24 14 31 14 55 2
35 -19 61 -19 96 -1 23 13 31 13 55 0 34 -18 60 -18 95 0 23 13 31 13 55 0 43
-22 80 -17 113 15 16 16 29 37 29 45 0 24 -30 19 -52 -9 -25 -32 -61 -32 -86
0 -25 31 -39 31 -64 0 -25 -32 -61 -32 -86 0 -11 14 -25 25 -32 25 -7 0 -21
-11 -32 -25 -25 -32 -61 -32 -86 0 -11 14 -25 25 -32 25 -7 0 -21 -11 -32 -25
-11 -14 -30 -25 -43 -25 -13 0 -32 11 -43 25 -21 27 -52 34 -52 11z"/>
</g>
</svg>
