<?xml version="1.0" standalone="no"?>
<!DOCTYPE svg PUBLIC "-//W3C//DTD SVG 20010904//EN"
 "http://www.w3.org/TR/2001/REC-SVG-20010904/DTD/svg10.dtd">
<svg version="1.0" xmlns="http://www.w3.org/2000/svg"
 width="96.000000pt" height="96.000000pt" viewBox="0 0 96.000000 96.000000"
 preserveAspectRatio="xMidYMid meet">

<g transform="translate(0.000000,96.000000) scale(0.100000,-0.100000)"
fill="#000000" stroke="none">
<path d="M120 720 l0 -90 90 0 90 0 0 90 0 90 -90 0 -90 0 0 -90z m120 0 c0
-27 -3 -30 -30 -30 -27 0 -30 3 -30 30 0 27 3 30 30 30 27 0 30 -3 30 -30z"/>
<path d="M360 720 l0 -30 225 0 225 0 0 30 0 30 -225 0 -225 0 0 -30z"/>
<path d="M120 480 l0 -90 90 0 90 0 0 90 0 90 -90 0 -90 0 0 -90z m120 0 c0
-27 -3 -30 -30 -30 -27 0 -30 3 -30 30 0 27 3 30 30 30 27 0 30 -3 30 -30z"/>
<path d="M360 480 l0 -30 225 0 225 0 0 30 0 30 -225 0 -225 0 0 -30z"/>
<path d="M120 240 l0 -90 90 0 90 0 0 90 0 90 -90 0 -90 0 0 -90z m120 0 c0
-27 -3 -30 -30 -30 -27 0 -30 3 -30 30 0 27 3 30 30 30 27 0 30 -3 30 -30z"/>
<path d="M360 240 l0 -30 225 0 225 0 0 30 0 30 -225 0 -225 0 0 -30z"/>
</g>
</svg>
