<?xml version="1.0" standalone="no"?>
<!DOCTYPE svg PUBLIC "-//W3C//DTD SVG 20010904//EN"
 "http://www.w3.org/TR/2001/REC-SVG-20010904/DTD/svg10.dtd">
<svg version="1.0" xmlns="http://www.w3.org/2000/svg"
 width="96.000000pt" height="96.000000pt" viewBox="0 0 96.000000 96.000000"
 preserveAspectRatio="xMidYMid meet">

<g transform="translate(0.000000,96.000000) scale(0.100000,-0.100000)"
fill="#000000" stroke="none">
<path d="M395 791 c-132 -61 -165 -222 -68 -328 19 -21 30 -39 24 -41 -7 -2
-33 -21 -60 -42 -54 -43 -96 -117 -107 -187 -7 -43 -6 -43 25 -43 22 0 31 5
31 16 0 67 68 167 136 199 20 9 68 21 105 26 82 10 115 26 157 73 68 78 68
194 -1 273 -61 69 -161 92 -242 54z m155 -61 c45 -23 80 -80 80 -130 0 -76
-74 -150 -150 -150 -76 0 -150 74 -150 150 0 48 35 107 78 129 48 26 93 26
142 1z"/>
<path d="M720 386 c0 -28 -4 -35 -26 -40 -19 -5 -33 -1 -48 13 l-22 21 -22
-22 -22 -22 21 -22 c14 -15 18 -29 13 -48 -5 -22 -12 -26 -40 -26 -31 0 -34
-3 -34 -30 0 -27 3 -30 34 -30 28 0 35 -4 40 -26 5 -19 1 -33 -13 -48 l-21
-22 22 -22 22 -22 22 21 c15 14 29 18 48 13 22 -5 26 -12 26 -40 0 -31 3 -34
30 -34 27 0 30 3 30 34 0 28 4 35 26 40 19 5 33 1 49 -14 l21 -20 22 23 22 23
-21 20 c-15 15 -18 28 -14 47 6 23 13 27 41 27 31 0 34 3 34 30 0 27 -3 30
-34 30 -28 0 -35 4 -40 26 -5 19 -1 33 14 49 l20 21 -23 22 -23 22 -20 -21
c-15 -15 -28 -18 -47 -14 -23 6 -27 13 -27 41 0 31 -3 34 -30 34 -27 0 -30 -3
-30 -34z m91 -115 c20 -20 29 -39 29 -61 0 -43 -47 -90 -90 -90 -43 0 -90 47
-90 90 0 43 47 90 90 90 22 0 41 -9 61 -29z"/>
<path d="M724 226 c-10 -26 4 -48 28 -44 17 2 23 10 23 28 0 18 -6 26 -23 28
-13 2 -25 -3 -28 -12z"/>
</g>
</svg>
