<?xml version="1.0" standalone="no"?>
<!DOCTYPE svg PUBLIC "-//W3C//DTD SVG 20010904//EN"
 "http://www.w3.org/TR/2001/REC-SVG-20010904/DTD/svg10.dtd">
<svg version="1.0" xmlns="http://www.w3.org/2000/svg"
 width="100.000000pt" height="100.000000pt" viewBox="0 0 100.000000 100.000000"
 preserveAspectRatio="xMidYMid meet">

<g transform="translate(0.000000,100.000000) scale(0.100000,-0.100000)"
fill="#000000" stroke="none">
<path d="M45 948 c-3 -7 -4 -213 -3 -458 l3 -445 455 0 c398 0 455 2 455 15 0
9 -11 16 -27 18 -19 2 -29 10 -32 25 -3 12 -14 69 -26 127 -11 58 -26 128 -33
155 -13 49 -14 50 -56 53 -37 3 -42 1 -37 -15 13 -40 55 -241 62 -290 l7 -53
-293 0 -293 0 7 53 c7 48 49 250 62 290 5 14 -1 17 -38 17 l-44 0 -27 -122
c-14 -68 -29 -141 -33 -163 -10 -70 -13 -75 -45 -75 l-29 0 0 188 c0 129 4
192 12 200 8 8 8 15 0 25 -8 9 -13 88 -14 237 -2 168 -6 224 -15 228 -7 2 -15
-2 -18 -10z"/>
<path d="M465 906 c-68 -29 -148 -153 -201 -310 -13 -38 -24 -71 -24 -73 0 -2
18 -3 41 -1 l41 3 32 85 c53 142 117 230 166 230 49 0 113 -88 166 -230 l32
-85 41 -3 c23 -2 41 -1 41 1 0 2 -11 35 -24 73 -69 203 -166 325 -258 324 -13
-1 -37 -7 -53 -14z"/>
<path d="M124 489 c-10 -17 13 -36 27 -22 12 12 4 33 -11 33 -5 0 -12 -5 -16
-11z"/>
<path d="M184 489 c-10 -17 13 -36 27 -22 12 12 4 33 -11 33 -5 0 -12 -5 -16
-11z"/>
<path d="M244 489 c-10 -17 13 -36 27 -22 12 12 4 33 -11 33 -5 0 -12 -5 -16
-11z"/>
<path d="M304 489 c-10 -17 13 -36 27 -22 12 12 4 33 -11 33 -5 0 -12 -5 -16
-11z"/>
<path d="M364 489 c-10 -17 13 -36 27 -22 12 12 4 33 -11 33 -5 0 -12 -5 -16
-11z"/>
<path d="M424 489 c-10 -17 13 -36 27 -22 12 12 4 33 -11 33 -5 0 -12 -5 -16
-11z"/>
<path d="M484 489 c-10 -17 13 -36 27 -22 12 12 4 33 -11 33 -5 0 -12 -5 -16
-11z"/>
<path d="M544 489 c-10 -17 13 -36 27 -22 12 12 4 33 -11 33 -5 0 -12 -5 -16
-11z"/>
<path d="M604 489 c-10 -17 13 -36 27 -22 12 12 4 33 -11 33 -5 0 -12 -5 -16
-11z"/>
<path d="M664 489 c-10 -17 13 -36 27 -22 12 12 4 33 -11 33 -5 0 -12 -5 -16
-11z"/>
<path d="M724 489 c-10 -17 13 -36 27 -22 12 12 4 33 -11 33 -5 0 -12 -5 -16
-11z"/>
<path d="M784 489 c-10 -17 13 -36 27 -22 12 12 4 33 -11 33 -5 0 -12 -5 -16
-11z"/>
<path d="M844 489 c-10 -17 13 -36 27 -22 12 12 4 33 -11 33 -5 0 -12 -5 -16
-11z"/>
<path d="M904 489 c-10 -17 13 -36 27 -22 12 12 4 33 -11 33 -5 0 -12 -5 -16
-11z"/>
</g>
</svg>
