<?xml version="1.0" encoding="UTF-8"?>
<!DOCTYPE svg PUBLIC "-//W3C//DTD SVG 1.1//EN" "http://www.w3.org/Graphics/SVG/1.1/DTD/svg11.dtd">
<svg xmlns="http://www.w3.org/2000/svg" version="1.1" width="512px" height="512px" style="shape-rendering:geometricPrecision; text-rendering:geometricPrecision; image-rendering:optimizeQuality; fill-rule:evenodd; clip-rule:evenodd" xmlns:xlink="http://www.w3.org/1999/xlink">
<g><path style="opacity:0.976" fill="#000000" d="M 165.5,35.5 C 232.878,35.0136 300.212,35.5136 367.5,37C 372.675,38.3871 377.342,40.7204 381.5,44C 410,72.5 438.5,101 467,129.5C 470.818,134.942 473.485,140.942 475,147.5C 475.667,245.5 475.667,343.5 475,441.5C 470.5,459.333 459.333,470.5 441.5,475C 349.5,475.667 257.5,475.667 165.5,475C 140.865,467.255 129.532,450.422 131.5,424.5C 80.1801,411.012 48.6801,378.346 37,326.5C 29.302,271.217 48.4686,228.05 94.5,197C 105.951,189.942 118.285,185.109 131.5,182.5C 131.333,144.832 131.5,107.165 132,69.5C 136.682,51.6521 147.849,40.3187 165.5,35.5 Z M 175.5,59.5 C 230.167,59.5 284.833,59.5 339.5,59.5C 339.333,85.5021 339.5,111.502 340,137.5C 344.491,155.325 355.658,166.491 373.5,171C 399.498,171.5 425.498,171.667 451.5,171.5C 451.667,258.167 451.5,344.834 451,431.5C 449.833,443.333 443.333,449.833 431.5,451C 346.167,451.667 260.833,451.667 175.5,451C 161.877,449.204 155.211,441.37 155.5,427.5C 208.583,427.532 247.416,404.199 272,357.5C 287.333,321.488 287.333,285.488 272,249.5C 247.408,202.79 208.575,179.457 155.5,179.5C 155.333,146.165 155.5,112.832 156,79.5C 157.345,67.6565 163.845,60.9898 175.5,59.5 Z M 363.5,62.5 C 392.631,89.7975 420.964,117.964 448.5,147C 426.833,147.667 405.167,147.667 383.5,147C 371.667,145.833 365.167,139.333 364,127.5C 363.5,105.836 363.333,84.1692 363.5,62.5 Z M 159.5,203.5 C 213.619,207.785 246.452,236.452 258,289.5C 261.856,338.251 242.022,373.418 198.5,395C 151.709,411.396 112.209,400.896 80,363.5C 59.7342,334.565 55.0675,303.232 66,269.5C 83.532,228.153 114.699,206.153 159.5,203.5 Z"/></g>
<g><path style="opacity:0.979" fill="#000000" d="M 234.5,147.5 C 253.836,147.333 273.17,147.5 292.5,148C 299.07,151.655 301.237,157.155 299,164.5C 297.5,167.333 295.333,169.5 292.5,171C 273.167,171.667 253.833,171.667 234.5,171C 227.451,166.513 225.617,160.346 229,152.5C 230.73,150.598 232.563,148.931 234.5,147.5 Z"/></g>
<g><path style="opacity:0.986" fill="#000000" d="M 314.5,211.5 C 344.502,211.333 374.502,211.5 404.5,212C 411.07,215.655 413.237,221.155 411,228.5C 409.5,231.333 407.333,233.5 404.5,235C 374.5,235.667 344.5,235.667 314.5,235C 307.451,230.513 305.617,224.346 309,216.5C 310.73,214.598 312.563,212.931 314.5,211.5 Z"/></g>
<g><path style="opacity:0.949" fill="#000000" d="M 154.5,243.5 C 162.701,241.4 168.534,244.066 172,251.5C 172.667,270.167 172.667,288.833 172,307.5C 171.333,308.833 170.667,310.167 170,311.5C 160.5,320.333 151,329.167 141.5,338C 131.518,341.505 125.518,338.005 123.5,327.5C 124.18,325.111 125.014,322.778 126,320.5C 133,313.5 140,306.5 147,299.5C 147.333,283.5 147.667,267.5 148,251.5C 149.305,248.039 151.471,245.372 154.5,243.5 Z"/></g>
<g><path style="opacity:0.983" fill="#000000" d="M 330.5,275.5 C 355.169,275.333 379.836,275.5 404.5,276C 411.07,279.655 413.237,285.155 411,292.5C 409.5,295.333 407.333,297.5 404.5,299C 379.833,299.667 355.167,299.667 330.5,299C 323.451,294.513 321.617,288.346 325,280.5C 326.73,278.598 328.563,276.931 330.5,275.5 Z"/></g>
<g><path style="opacity:0.986" fill="#000000" d="M 314.5,339.5 C 344.502,339.333 374.502,339.5 404.5,340C 411.07,343.655 413.237,349.155 411,356.5C 409.5,359.333 407.333,361.5 404.5,363C 374.5,363.667 344.5,363.667 314.5,363C 307.451,358.513 305.617,352.346 309,344.5C 310.73,342.598 312.563,340.931 314.5,339.5 Z"/></g>
</svg>
