<?xml version="1.0" encoding="UTF-8"?>
<!DOCTYPE svg PUBLIC "-//W3C//DTD SVG 1.1//EN" "http://www.w3.org/Graphics/SVG/1.1/DTD/svg11.dtd">
<svg xmlns="http://www.w3.org/2000/svg" version="1.1" width="512px" height="512px" style="shape-rendering:geometricPrecision; text-rendering:geometricPrecision; image-rendering:optimizeQuality; fill-rule:evenodd; clip-rule:evenodd" xmlns:xlink="http://www.w3.org/1999/xlink">
<g><path style="opacity:0.963" fill="#000000" d="M 275.5,48.5 C 291.985,46.818 299.152,54.1513 297,70.5C 296.439,72.7254 295.439,74.7254 294,76.5C 286.985,83.3477 280.152,90.3477 273.5,97.5C 344.033,107.238 394.2,144.238 424,208.5C 449.601,276.293 440.601,338.959 397,396.5C 348.988,450.56 289.155,471.393 217.5,459C 141.45,439.617 94.2831,391.783 76,315.5C 65.0231,248.855 83.5231,192.022 131.5,145C 139.406,139.235 147.406,139.068 155.5,144.5C 161.571,152.123 162.071,160.123 157,168.5C 116.55,206.176 100.55,252.509 109,307.5C 120.011,357.504 148.511,393.671 194.5,416C 246.543,437.203 295.876,432.203 342.5,401C 392.539,361.714 412.039,310.547 401,247.5C 388.774,198.859 359.94,164.026 314.5,143C 300.319,137.121 285.652,133.455 270.5,132C 280.068,140.898 288.901,150.398 297,160.5C 299.78,173.967 294.447,181.633 281,183.5C 278.409,183.435 275.909,182.935 273.5,182C 254.028,163.529 234.862,144.695 216,125.5C 212.178,117.723 212.845,110.39 218,103.5C 234.833,86.6667 251.667,69.8333 268.5,53C 270.898,51.4758 273.231,49.9758 275.5,48.5 Z"/></g>
</svg>
