<?xml version="1.0" encoding="UTF-8"?>
<!DOCTYPE svg PUBLIC "-//W3C//DTD SVG 1.1//EN" "http://www.w3.org/Graphics/SVG/1.1/DTD/svg11.dtd">
<svg xmlns="http://www.w3.org/2000/svg" version="1.1" width="512px" height="512px" style="shape-rendering:geometricPrecision; text-rendering:geometricPrecision; image-rendering:optimizeQuality; fill-rule:evenodd; clip-rule:evenodd" xmlns:xlink="http://www.w3.org/1999/xlink">
<g><path style="opacity:0.992" fill="#ffb400" d="M 252.5,89.5 C 264.189,89.0954 273.689,93.4287 281,102.5C 330.333,187.833 379.667,273.167 429,358.5C 439.412,375.878 437.246,391.378 422.5,405C 418.186,407.66 413.519,409.327 408.5,410C 306.5,410.667 204.5,410.667 102.5,410C 82.4681,405.442 73.6348,392.942 76,372.5C 77.4433,367.611 79.4433,362.945 82,358.5C 131.333,273.167 180.667,187.833 230,102.5C 235.891,95.1451 243.391,90.8117 252.5,89.5 Z"/></g>
<g><path style="opacity:1" fill="#fcf3d8" d="M 248.5,185.5 C 257.02,184.05 264.52,186.05 271,191.5C 272,193.5 273,195.5 274,197.5C 274.667,228.167 274.667,258.833 274,289.5C 272.5,296.333 268.333,300.5 261.5,302C 254.751,303.331 248.418,302.331 242.5,299C 239.769,296.374 237.936,293.207 237,289.5C 236.333,258.833 236.333,228.167 237,197.5C 239.019,191.65 242.852,187.65 248.5,185.5 Z"/></g>
<g><path style="opacity:1" fill="#fcf3d7" d="M 249.5,330.5 C 268.983,329.478 276.816,338.478 273,357.5C 265.671,368.374 256.171,370.874 244.5,365C 235.82,357.058 234.32,347.891 240,337.5C 242.825,334.524 245.992,332.191 249.5,330.5 Z"/></g>
</svg>
