<?xml version="1.0" standalone="no"?>
<!DOCTYPE svg PUBLIC "-//W3C//DTD SVG 20010904//EN"
 "http://www.w3.org/TR/2001/REC-SVG-20010904/DTD/svg10.dtd">
<svg version="1.0" xmlns="http://www.w3.org/2000/svg"
 width="90.000000pt" height="90.000000pt" viewBox="0 0 90.000000 90.000000"
 preserveAspectRatio="xMidYMid meet">

<g transform="translate(0.000000,90.000000) scale(0.100000,-0.100000)"
fill="#000000" stroke="none">
<path d="M423 800 c-5 -18 -14 -20 -94 -20 -66 0 -90 -4 -96 -14 -4 -8 -24
-16 -43 -18 -30 -3 -35 -7 -35 -28 l0 -25 295 0 295 0 0 25 c0 21 -5 25 -35
28 -19 2 -39 10 -43 18 -6 10 -30 14 -96 14 -80 0 -89 2 -94 20 -3 12 -14 20
-27 20 -13 0 -24 -8 -27 -20z"/>
<path d="M185 583 c3 -27 17 -135 30 -242 19 -158 26 -197 41 -208 13 -10 65
-13 195 -13 148 0 180 3 193 16 21 20 22 26 46 239 11 99 23 197 26 218 l6 37
-271 0 -272 0 6 -47z"/>
</g>
</svg>
