<?xml version="1.0" encoding="UTF-8"?>
<!DOCTYPE svg PUBLIC "-//W3C//DTD SVG 1.1//EN" "http://www.w3.org/Graphics/SVG/1.1/DTD/svg11.dtd">
<svg xmlns="http://www.w3.org/2000/svg" version="1.1" width="512px" height="512px" style="shape-rendering:geometricPrecision; text-rendering:geometricPrecision; image-rendering:optimizeQuality; fill-rule:evenodd; clip-rule:evenodd" xmlns:xlink="http://www.w3.org/1999/xlink">
<g><path style="opacity:0.978" fill="#000000" d="M 121.5,41.5 C 210.834,41.3333 300.167,41.5 389.5,42C 411.018,43.838 428.184,53.338 441,70.5C 444.636,76.4032 447.303,82.7366 449,89.5C 449.667,109.167 449.667,128.833 449,148.5C 445.174,164.982 436.008,177.482 421.5,186C 434.394,193.9 443.227,205.067 448,219.5C 449.621,240.449 449.954,261.449 449,282.5C 444.658,298.015 435.824,310.349 422.5,319.5C 434.859,327.566 443.359,338.566 448,352.5C 449.621,373.449 449.954,394.449 449,415.5C 443.535,436.966 430.368,451.466 409.5,459C 404.323,460.961 398.99,462.294 393.5,463C 301.5,463.667 209.5,463.667 117.5,463C 93.4816,459.425 75.9816,446.925 65,425.5C 63.7977,422.226 62.7977,418.893 62,415.5C 61.3333,395.833 61.3333,376.167 62,356.5C 66.3425,340.985 75.1758,328.651 88.5,319.5C 76.1534,311.474 67.6534,300.474 63,286.5C 61.3794,265.551 61.0461,244.551 62,223.5C 65.8257,207.018 74.9923,194.518 89.5,186C 76.4987,178.181 67.6654,167.014 63,152.5C 61.3794,131.551 61.0461,110.551 62,89.5C 66.932,70.8964 78.0987,57.3964 95.5,49C 104.024,45.5403 112.691,43.0403 121.5,41.5 Z M 123.5,74.5 C 213.203,74.0127 302.869,74.5127 392.5,76C 413.79,82.7193 422.124,97.2193 417.5,119.5C 421.905,146.568 410.572,161.402 383.5,164C 295.477,164.979 207.477,164.646 119.5,163C 108.425,160.581 100.259,154.414 95,144.5C 93.4397,129.874 93.1064,115.208 94,100.5C 95.7236,89.435 101.89,81.935 112.5,78C 116.254,76.6912 119.921,75.5246 123.5,74.5 Z M 138.5,112.5 C 147.85,112.365 150.517,116.532 146.5,125C 137.956,128.322 134.123,125.489 135,116.5C 135.69,114.65 136.856,113.316 138.5,112.5 Z M 120.5,208.5 C 210.501,208.333 300.501,208.5 390.5,209C 413.247,214.617 422.247,229.117 417.5,252.5C 422.182,277.018 412.516,291.851 388.5,297C 298.131,297.987 207.798,297.654 117.5,296C 106.987,293.486 99.4868,287.319 95,277.5C 93.4397,262.874 93.1064,248.208 94,233.5C 94.5006,227.333 97.0006,222.166 101.5,218C 107.378,213.727 113.712,210.561 120.5,208.5 Z M 138.5,248.5 C 147.85,248.365 150.517,252.532 146.5,261C 137.956,264.322 134.123,261.489 135,252.5C 135.69,250.65 136.856,249.316 138.5,248.5 Z M 124.5,341.5 C 213.864,341.015 303.197,341.515 392.5,343C 413.79,349.719 422.124,364.219 417.5,386.5C 421.874,412.965 410.874,427.799 384.5,431C 296.141,431.982 207.807,431.648 119.5,430C 108.425,427.581 100.259,421.414 95,411.5C 93.4397,396.874 93.1064,382.208 94,367.5C 95.7236,356.435 101.89,348.935 112.5,345C 116.543,343.509 120.543,342.342 124.5,341.5 Z M 140.5,376.5 C 149.85,376.365 152.517,380.532 148.5,389C 139.956,392.322 136.123,389.489 137,380.5C 137.69,378.65 138.856,377.316 140.5,376.5 Z"/></g>
<g><path style="opacity:0.964" fill="#000000" d="M 132.5,79.5 C 155.358,76.5037 171.191,85.5037 180,106.5C 185.718,130.897 177.218,148.064 154.5,158C 130.103,163.718 112.936,155.218 103,132.5C 97.4241,105.977 107.257,88.3104 132.5,79.5 Z M 138.5,112.5 C 136.856,113.316 135.69,114.65 135,116.5C 134.123,125.489 137.956,128.322 146.5,125C 150.517,116.532 147.85,112.365 138.5,112.5 Z"/></g>
<g><path style="opacity:0.991" fill="#000000" d="M 199.5,103.5 C 259.501,103.333 319.501,103.5 379.5,104C 388.482,108.473 391.649,115.64 389,125.5C 387.167,130 384,133.167 379.5,135C 319.5,135.667 259.5,135.667 199.5,135C 192.513,132.193 189.18,127.027 189.5,119.5C 189.302,111.885 192.635,106.551 199.5,103.5 Z"/></g>
<g><path style="opacity:0.964" fill="#000000" d="M 132.5,215.5 C 155.358,212.504 171.191,221.504 180,242.5C 185.718,266.897 177.218,284.064 154.5,294C 130.103,299.718 112.936,291.218 103,268.5C 97.4241,241.977 107.257,224.31 132.5,215.5 Z M 138.5,248.5 C 136.856,249.316 135.69,250.65 135,252.5C 134.123,261.489 137.956,264.322 146.5,261C 150.517,252.532 147.85,248.365 138.5,248.5 Z"/></g>
<g><path style="opacity:0.991" fill="#000000" d="M 199.5,239.5 C 259.501,239.333 319.501,239.5 379.5,240C 388.482,244.473 391.649,251.64 389,261.5C 387.167,266 384,269.167 379.5,271C 319.5,271.667 259.5,271.667 199.5,271C 192.513,268.193 189.18,263.027 189.5,255.5C 189.302,247.885 192.635,242.551 199.5,239.5 Z"/></g>
<g><path style="opacity:0.964" fill="#000000" d="M 134.5,343.5 C 157.358,340.504 173.191,349.504 182,370.5C 187.718,394.897 179.218,412.064 156.5,422C 132.103,427.718 114.936,419.218 105,396.5C 99.4241,369.977 109.257,352.31 134.5,343.5 Z M 140.5,376.5 C 138.856,377.316 137.69,378.65 137,380.5C 136.123,389.489 139.956,392.322 148.5,389C 152.517,380.532 149.85,376.365 140.5,376.5 Z"/></g>
<g><path style="opacity:0.991" fill="#000000" d="M 199.5,375.5 C 259.501,375.333 319.501,375.5 379.5,376C 388.482,380.473 391.649,387.64 389,397.5C 387.167,402 384,405.167 379.5,407C 319.5,407.667 259.5,407.667 199.5,407C 192.513,404.193 189.18,399.027 189.5,391.5C 189.302,383.885 192.635,378.551 199.5,375.5 Z"/></g>
</svg>
