<?xml version="1.0" encoding="UTF-8"?>
<!DOCTYPE svg PUBLIC "-//W3C//DTD SVG 1.1//EN" "http://www.w3.org/Graphics/SVG/1.1/DTD/svg11.dtd">
<svg xmlns="http://www.w3.org/2000/svg" version="1.1" width="512px" height="512px" style="shape-rendering:geometricPrecision; text-rendering:geometricPrecision; image-rendering:optimizeQuality; fill-rule:evenodd; clip-rule:evenodd" xmlns:xlink="http://www.w3.org/1999/xlink">
<g><path style="opacity:0.996" fill="#02bc7c" d="M 243.5,41.5 C 322.667,40.1684 385.5,71.1684 432,134.5C 471.074,194.759 479.408,259.093 457,327.5C 435.106,383.814 396.939,424.981 342.5,451C 266.399,481.689 194.732,473.689 127.5,427C 62.4032,374.763 34.5699,306.929 44,223.5C 57.9817,147.875 99.4817,93.3745 168.5,60C 192.604,49.6847 217.604,43.518 243.5,41.5 Z M 324.5,171.5 C 333.86,169.897 341.694,172.564 348,179.5C 352.33,187.589 351.996,195.589 347,203.5C 314.667,245.833 282.333,288.167 250,330.5C 241.773,340.35 231.94,342.517 220.5,337C 201.286,313.454 182.452,289.621 164,265.5C 156.019,249.438 160.519,238.605 177.5,233C 183.226,231.896 188.56,232.896 193.5,236C 205.976,252.806 218.809,269.306 232,285.5C 259.358,250.471 286.358,215.137 313,179.5C 316.482,176.161 320.315,173.494 324.5,171.5 Z"/></g>
</svg>
