<?xml version="1.0" encoding="UTF-8"?>
<!DOCTYPE svg PUBLIC "-//W3C//DTD SVG 1.1//EN" "http://www.w3.org/Graphics/SVG/1.1/DTD/svg11.dtd">
<svg xmlns="http://www.w3.org/2000/svg" version="1.1" width="512px" height="512px" style="shape-rendering:geometricPrecision; text-rendering:geometricPrecision; image-rendering:optimizeQuality; fill-rule:evenodd; clip-rule:evenodd" xmlns:xlink="http://www.w3.org/1999/xlink">
<g><path style="opacity:0.997" fill="#2196f3" d="M 232.5,-0.5 C 247.833,-0.5 263.167,-0.5 278.5,-0.5C 368.144,10.3879 435.644,54.7213 481,132.5C 497.695,163.971 507.861,197.304 511.5,232.5C 511.5,247.833 511.5,263.167 511.5,278.5C 500.612,368.144 456.279,435.644 378.5,481C 347.029,497.695 313.696,507.861 278.5,511.5C 263.167,511.5 247.833,511.5 232.5,511.5C 142.856,500.612 75.3562,456.279 30,378.5C 13.3053,347.029 3.1386,313.696 -0.5,278.5C -0.5,263.167 -0.5,247.833 -0.5,232.5C 10.3875,142.857 54.7208,75.3573 132.5,30C 163.971,13.3053 197.304,3.1386 232.5,-0.5 Z M 245.5,124.5 C 297.344,124.596 337.177,146.262 365,189.5C 383.719,222.795 387.719,257.795 377,294.5C 360.885,340.947 329.052,370.447 281.5,383C 270.94,385.323 260.274,386.323 249.5,386C 242.334,383.166 239.834,377.999 242,370.5C 244.665,366.414 248.498,364.247 253.5,364C 303.801,361.274 337.968,336.441 356,289.5C 369.729,235.822 353.896,193.322 308.5,162C 271.984,141.931 235.317,141.597 198.5,161C 166.427,180.659 148.761,209.159 145.5,246.5C 152.319,240.181 158.986,233.681 165.5,227C 175.176,222.562 181.176,225.562 183.5,236C 183.091,238.321 182.257,240.487 181,242.5C 167.167,256.333 153.333,270.167 139.5,284C 134.833,287.333 130.167,287.333 125.5,284C 111.667,270.167 97.8333,256.333 84,242.5C 79.8442,234.3 82.0109,228.466 90.5,225C 93.7829,224.257 96.7829,224.924 99.5,227C 106.667,234.167 113.833,241.333 121,248.5C 128.536,185.634 162.703,145.467 223.5,128C 230.955,126.675 238.288,125.509 245.5,124.5 Z"/></g>
</svg>
