<?xml version="1.0" standalone="no"?>
<!DOCTYPE svg PUBLIC "-//W3C//DTD SVG 20010904//EN"
 "http://www.w3.org/TR/2001/REC-SVG-20010904/DTD/svg10.dtd">
<svg version="1.0" xmlns="http://www.w3.org/2000/svg"
 width="512.000000pt" height="512.000000pt" viewBox="0 0 512.000000 512.000000"
 preserveAspectRatio="xMidYMid meet">

<g transform="translate(0.000000,512.000000) scale(0.100000,-0.100000)"
fill="#000000" stroke="none">
<path d="M2110 4637 c0 -30 -123 -603 -130 -605 -51 -18 -207 -104 -298 -165
l-112 -76 -58 20 c-162 58 -525 179 -527 177 -15 -20 -445 -769 -445 -775 0
-5 102 -98 226 -207 190 -167 225 -202 220 -220 -3 -11 -11 -67 -18 -123 -11
-97 -3 -251 18 -329 5 -18 -30 -53 -220 -220 -124 -109 -226 -202 -226 -207 0
-6 429 -753 445 -775 2 -2 385 126 527 177 l58 20 112 -76 c91 -61 247 -147
298 -165 7 -2 130 -575 130 -605 0 -2 203 -3 450 -3 248 0 450 1 450 3 0 28
123 603 129 605 5 2 47 21 93 43 92 45 151 80 249 151 l66 47 293 -100 c161
-55 294 -98 295 -97 16 22 445 769 445 775 0 6 -102 99 -226 207 -191 167
-225 201 -220 219 21 79 29 233 18 330 -7 56 -15 112 -18 124 -5 18 29 52 220
219 124 109 226 202 226 207 0 6 -429 753 -445 775 -1 1 -134 -42 -295 -97
l-294 -100 -65 47 c-98 71 -157 106 -249 151 -46 22 -88 41 -93 43 -6 2 -129
577 -129 605 0 2 -202 3 -450 3 -247 0 -450 -1 -450 -3z m649 -369 c6 -29 28
-142 49 -250 21 -109 41 -201 44 -204 4 -3 51 -21 105 -40 185 -66 326 -148
459 -268 40 -36 78 -66 85 -66 6 0 98 30 203 66 264 92 285 98 289 93 2 -2 39
-65 82 -139 43 -74 85 -145 92 -157 14 -20 7 -28 -153 -170 -92 -81 -181 -159
-197 -173 l-29 -26 23 -104 c33 -145 33 -397 0 -544 -17 -80 -19 -102 -9 -111
7 -7 95 -85 196 -174 174 -155 182 -164 169 -185 -7 -11 -49 -82 -92 -156 -43
-74 -80 -137 -82 -139 -4 -5 -25 1 -289 93 -105 36 -197 66 -203 66 -7 0 -45
-30 -85 -66 -135 -122 -295 -214 -470 -270 -62 -20 -91 -35 -97 -49 -5 -11
-27 -117 -49 -235 -23 -118 -44 -225 -47 -237 -5 -23 -6 -23 -193 -23 -187 0
-188 0 -193 23 -3 12 -24 119 -47 237 -22 118 -44 224 -49 235 -6 14 -35 29
-97 49 -86 28 -210 84 -284 128 -51 31 -190 140 -224 177 -17 17 -37 31 -45
31 -9 0 -119 -36 -246 -80 -126 -44 -234 -80 -240 -80 -5 0 -40 53 -77 118
-38 64 -79 136 -93 159 l-25 42 167 148 c91 81 180 159 196 173 l29 26 -23
104 c-34 150 -34 390 0 540 l23 104 -29 26 c-16 14 -105 92 -197 173 -160 142
-167 150 -153 170 7 12 49 83 92 157 43 74 80 137 82 139 2 3 115 -33 252 -80
l249 -84 53 50 c143 134 306 231 493 291 62 20 91 35 97 49 5 11 27 117 49
235 23 118 44 225 47 238 5 22 6 22 193 22 l189 0 10 -52z"/>
<path d="M2410 3345 c-155 -31 -282 -98 -403 -214 -330 -316 -328 -830 6
-1148 229 -218 535 -279 836 -167 198 73 381 258 457 460 88 233 65 487 -63
697 -51 85 -165 201 -249 257 -168 110 -391 154 -584 115z m265 -320 c172 -45
305 -179 350 -352 65 -249 -94 -511 -350 -578 -251 -65 -513 94 -580 350 -89
343 237 669 580 580z"/>
</g>
</svg>
