<?xml version="1.0" encoding="UTF-8"?>
<!DOCTYPE svg PUBLIC "-//W3C//DTD SVG 1.1//EN" "http://www.w3.org/Graphics/SVG/1.1/DTD/svg11.dtd">
<svg xmlns="http://www.w3.org/2000/svg" version="1.1" width="512px" height="512px" style="shape-rendering:geometricPrecision; text-rendering:geometricPrecision; image-rendering:optimizeQuality; fill-rule:evenodd; clip-rule:evenodd" xmlns:xlink="http://www.w3.org/1999/xlink">
<g><path style="opacity:0.98" fill="#000000" d="M 249.5,-0.5 C 251.5,-0.5 253.5,-0.5 255.5,-0.5C 255.783,0.28913 256.283,0.955796 257,1.5C 257.5,22.164 257.667,42.8306 257.5,63.5C 331.951,65.8052 391.451,96.4718 436,155.5C 477.213,215.106 488.547,280.106 470,350.5C 445.167,427.333 394.333,478.167 317.5,503C 303.556,506.819 289.556,509.652 275.5,511.5C 261.5,511.5 247.5,511.5 233.5,511.5C 147.352,499.848 85.5183,454.848 48,376.5C 40.0989,358.062 34.9323,338.895 32.5,319C 33.2497,302.48 41.5831,292.146 57.5,288C 74.2157,285.772 86.0491,292.272 93,307.5C 105,375.827 143.833,420.994 209.5,443C 276.557,458.953 333.057,441.453 379,390.5C 419.605,337.069 426.605,279.402 400,217.5C 369.617,160.659 322.117,130.326 257.5,126.5C 257.667,146.836 257.5,167.169 257,187.5C 255.758,188.872 254.258,189.872 252.5,190.5C 210.694,160.527 169.027,130.36 127.5,100C 122.93,96.9309 122.596,93.5976 126.5,90C 167.923,60.3005 208.923,30.1339 249.5,-0.5 Z"/></g>
</svg>
