<?xml version="1.0" encoding="UTF-8"?>
<!DOCTYPE svg PUBLIC "-//W3C//DTD SVG 1.1//EN" "http://www.w3.org/Graphics/SVG/1.1/DTD/svg11.dtd">
<svg xmlns="http://www.w3.org/2000/svg" version="1.1" width="512px" height="512px" style="shape-rendering:geometricPrecision; text-rendering:geometricPrecision; image-rendering:optimizeQuality; fill-rule:evenodd; clip-rule:evenodd" xmlns:xlink="http://www.w3.org/1999/xlink">
<g><path style="opacity:0.967" fill="#000000" d="M 241.5,62.5 C 272.787,65.5413 304.121,68.3746 335.5,71C 336.159,86.1033 336.826,101.27 337.5,116.5C 358.113,119.493 378.779,122.16 399.5,124.5C 397.608,194.174 395.441,263.841 393,333.5C 384.588,393.504 351.755,433.337 294.5,453C 235.307,467.82 185.474,452.653 145,407.5C 140.42,401.34 136.086,395.007 132,388.5C 109.438,342.377 86.605,296.377 63.5,250.5C 74.0422,241.127 85.0422,232.294 96.5,224C 111.686,215.407 127.353,214.407 143.5,221C 152.778,226.89 161.611,233.39 170,240.5C 172.845,191.213 175.012,141.88 176.5,92.5C 197.841,92.5301 219.174,92.1968 240.5,91.5C 241.245,81.8517 241.578,72.1851 241.5,62.5 Z M 273.5,98.5 C 283.495,99.4996 293.495,100.5 303.5,101.5C 303.5,151.5 303.5,201.5 303.5,251.5C 314.5,251.5 325.5,251.5 336.5,251.5C 336.5,217.833 336.5,184.167 336.5,150.5C 346.175,151.418 355.842,152.418 365.5,153.5C 364.076,212.846 362.243,272.179 360,331.5C 352.896,374.554 329.063,404.054 288.5,420C 241.622,433.369 202.122,421.869 170,385.5C 167.333,381.5 164.667,377.5 162,373.5C 142.879,335.592 124.046,297.592 105.5,259.5C 110.233,254.273 116.066,250.94 123,249.5C 124.888,249.796 126.722,250.296 128.5,251C 144.621,262.809 160.455,274.975 176,287.5C 184.802,283.765 193.468,279.765 202,275.5C 204.42,225.509 206.586,175.509 208.5,125.5C 218.819,124.818 229.153,124.485 239.5,124.5C 238.685,165.838 237.685,207.171 236.5,248.5C 247.469,249.407 258.469,249.74 269.5,249.5C 270.833,199.167 272.167,148.833 273.5,98.5 Z"/></g>
</svg>
